<svg width="289" height="328" viewBox="0 0 289 328" fill="none" xmlns="http://www.w3.org/2000/svg">
<path d="M220.624 116.833C220.624 128.531 213.236 133.038 201.411 133.038H179.604C179.228 141.343 178.871 151.143 178.871 154.902C178.871 163.206 178.871 172.623 179.247 182.806C179.98 203.922 181.089 219.763 182.575 241.243C184.793 274.805 186.278 299.68 186.278 310.631C186.278 320.431 179.999 327.22 169.641 327.22C156.331 327.22 145.24 316.653 148.21 303.094C149.695 295.173 150.052 290.647 150.052 284.989C150.052 278.2 150.052 271.046 149.319 255.953C149.319 253.306 148.943 249.912 148.943 245.769L145.616 249.164C125.294 270.663 106.438 283.091 83.5223 283.091C67.6371 283.091 49.1388 274.786 40.2844 266.885C34.3627 261.227 31.4113 256.317 31.4113 248.032C31.4113 213.722 81.304 151.872 116.421 151.872C128.245 151.872 138.228 156.781 146.368 164.702V133.019H20.3386C8.51398 133.019 0.75 128.11 0.75 117.561C0.75 108.126 9.24717 104.367 21.0718 104.367C39.9272 104.367 55.0793 105.115 69.1222 105.115C116.797 105.115 123.827 105.498 148.586 105.498C151.537 100.972 156.726 98.709 163.381 98.709C169.66 98.709 174.096 100.972 177.048 105.115H182.593C184.812 105.115 194.418 104.367 199.964 104.367C210.303 104.367 220.661 107.761 220.661 116.813L220.624 116.833ZM143.003 202.426C138.19 191.111 128.584 183.957 119.71 183.957C104.558 183.957 66.8475 231.098 66.8475 251.446C66.8475 255.224 68.6898 257.104 73.5023 257.104C88.6544 257.104 110.837 238.635 124.147 225.057C134.129 214.873 138.19 209.215 143.003 202.426Z" fill="#D8D9FF"/>
<path d="M124.466 45.9497C116.702 38.029 108.205 22.9548 108.205 15.3985C108.205 6.72982 117.811 0.324219 126.309 0.324219C137.757 0.324219 145.897 6.36543 148.115 17.6615C151.443 36.1304 178.42 41.788 199.117 41.788C211.675 41.788 237.919 28.9576 242.731 20.289C246.435 13.8834 250.871 9.35727 257.15 9.35727C268.241 9.35727 281.551 16.1464 281.551 27.8261C281.551 31.9687 280.066 35.7468 277.115 38.3934C256.417 57.9938 225.737 70.4406 198.027 70.4406C172.159 70.4406 140.746 61.772 124.485 45.9306L124.466 45.9497Z" fill="#D8D9FF"/>
<path d="M288.621 118.731C288.621 128.167 280.481 133.058 270.141 133.058H254.613V311.782C254.613 320.834 251.662 327.24 242.413 327.24C230.964 327.24 219.121 319.702 219.121 308.004C219.121 300.466 220.606 289.535 220.606 283.493C220.606 277.088 220.982 265.773 221.339 255.972C222.448 223.925 223.181 203.193 223.181 174.905V133.422C212.466 133.422 205.435 133.039 204.326 133.039C191.392 133.039 183.252 130.028 183.252 119.096C183.252 109.66 189.907 104.022 199.513 104.022C202.465 104.022 210.605 104.405 224.648 104.405C230.569 104.405 236.848 103.657 243.503 103.657L270.122 104.041C281.214 104.041 288.602 108.567 288.602 118.751L288.621 118.731Z" fill="#D8D9FF"/>
</svg>
