<svg width="89" height="93" viewBox="0 0 89 93" fill="none" xmlns="http://www.w3.org/2000/svg">
<path d="M44.0877 92.5461C29.838 92.5461 18.991 89.094 11.5841 82.1706C4.1585 75.2663 0.455078 65.0058 0.455078 51.4083C0.455078 46.7671 0.925055 42.2985 1.86501 38.0026C2.80496 33.7066 4.19609 29.6024 6.07599 25.6708C9.81701 17.8077 15.0055 11.6322 21.6792 7.16363C28.3529 2.69505 35.9853 0.451172 44.6329 0.451172C48.5995 0.451172 52.3969 0.988176 56.0251 2.06217C59.6533 3.13616 63.0936 4.74715 66.3646 6.89513C70.6884 9.75272 74.4858 13.5117 77.7568 18.1529C81.0279 22.7941 83.6033 27.9531 85.4644 33.6299C87.3255 39.3067 88.2655 45.2137 88.2655 51.4275C88.2655 65.4853 84.5621 75.8608 77.1365 82.5349C69.7108 89.209 58.7134 92.5461 44.1065 92.5461H44.0877ZM43.9185 70.721C50.1034 70.721 54.6716 69.0525 57.5854 65.7154C60.4993 62.3784 61.9656 57.3153 61.9656 50.5261C61.9656 45.2904 61.1385 40.515 59.5217 36.219C57.8862 31.923 55.6867 28.4709 52.9421 25.8434C50.1974 23.216 47.1332 21.9119 43.7305 21.9119C40.3279 21.9119 37.4516 23.1968 34.707 25.7475C31.9623 28.3175 29.7628 31.7312 28.1273 36.0272C26.4918 40.3232 25.6834 45.137 25.6834 50.5069C25.6834 57.4303 27.1685 62.5126 30.1576 65.7921C33.1466 69.0717 37.7148 70.7018 43.9185 70.7018V70.721Z" fill="#D8D9FF"/>
</svg>
