<svg width="84" height="132" viewBox="0 0 84 132" fill="none" xmlns="http://www.w3.org/2000/svg">
<path d="M37.4782 131.664C29.5262 131.664 22.6646 131.031 16.8933 129.785C11.1032 128.538 5.51984 126.294 0.162109 123.072L10.3324 103.587C15.1261 106.099 19.6191 107.845 23.8301 108.861C28.0411 109.878 32.4213 110.376 36.9706 110.376C43.6255 110.376 48.7389 108.535 52.3107 104.834C55.8637 101.132 57.6496 96.0691 57.6496 89.6443V88.7429H40.2981C27.7967 88.7429 18.1904 85.1374 11.4603 77.9263C4.74907 70.7152 1.38404 60.4355 1.38404 47.0873C1.38404 36.9611 3.80911 28.4075 8.65927 21.4266C13.5094 14.4456 20.1455 9.17154 28.5487 5.60435C36.9519 2.01798 46.483 0.234375 57.1232 0.234375H83.7615V89.2799C83.7615 102.877 79.7385 113.33 71.6737 120.656C63.6089 127.982 52.2167 131.645 37.4971 131.645L37.4782 131.664ZM57.6308 67.3014V21.7142H52.0287C44.5467 21.7142 38.719 23.8622 34.508 28.1582C30.297 32.4542 28.1915 38.5337 28.1915 46.3969C28.1915 53.5505 29.6202 58.8245 32.4777 62.2191C35.3351 65.6137 39.6965 67.3206 45.543 67.3206H57.6308V67.3014Z" fill="#D8D9FF"/>
</svg>
